<?xml version="1.0" encoding="utf-8"?>
<!-- Generator: Adobe Illustrator 14.0.0, SVG Export Plug-In . SVG Version: 6.00 Build 43363)  -->
<!DOCTYPE svg PUBLIC "-//W3C//DTD SVG 1.1//EN" "http://www.w3.org/Graphics/SVG/1.1/DTD/svg11.dtd">
<svg version="1.1" id="Layer_1" xmlns="http://www.w3.org/2000/svg" xmlns:xlink="http://www.w3.org/1999/xlink" x="0px" y="0px"
	 width="900px" height="530px" viewBox="0 0 900 530" enable-background="new 0 0 900 530" xml:space="preserve">
<g>
	<path d="M853.285,0.925C506.171,31.342,443.569,400.197,432.562,516.598l-0.003,0.033l-0.001,0.033l-0.123,4.521
		c-0.065,0.771-0.077,1.58-0.088,2.363c-0.057,3.819-0.313,5.376-2.658,5.376c-0.617,0-1.364-0.115-2.222-0.342l-0.054-0.015
		l-0.055-0.008c-107.911-15.968-197.395-53.679-265.968-112.086C106.541,369.758,64.86,309.76,37.504,238.148
		C13.152,174.402,4.896,113.06,2.257,72.825c-2.579-39.334-0.44-66.702,0.026-71.9H853.285 M900-0.075H1.374
		c0,0-48.16,459.487,425.838,529.625c0.973,0.257,1.79,0.375,2.477,0.375c4.44,0,3.42-4.912,3.745-8.683l0.124-4.551
		C443.915,407.164,508.625-0.075,900-0.075L900-0.075z"/>
</g>
</svg>
